<svg xmlns="http://www.w3.org/2000/svg" fill="none" viewBox="0 0 70 71" height="71" width="70">
<path fill="#0E0311" d="M50.2931 24.4598C50.1452 23.5307 49.3316 22.8374 48.3933 22.8374C48.3886 22.8374 48.3794 22.8374 48.3748 22.8374C42.5413 22.8975 36.9158 24.9775 32.446 28.7032C32.3073 27.0669 31.8404 25.4721 31.0685 24.0114C30.0146 22.0192 28.4291 20.3551 26.4923 19.1995C25.7111 18.7327 24.7358 18.8621 24.1257 19.5139C21.2228 22.6062 19.6604 26.6462 19.7298 30.8896C19.7945 34.9758 21.3661 38.8216 24.1673 41.7753C23.9038 42.783 23.705 43.8092 23.571 44.8539C23.5155 45.2837 23.816 45.6766 24.2505 45.7367C24.2828 45.7414 24.3198 45.7414 24.3522 45.7414C24.7404 45.7414 25.0779 45.4548 25.1287 45.0572C25.272 43.971 25.4846 42.9078 25.7712 41.877C25.8036 41.8077 25.8221 41.7384 25.8313 41.6644C28.6649 31.7309 37.8265 24.5199 48.4025 24.409C48.4025 24.409 48.4025 24.409 48.4071 24.409C48.5735 24.409 48.7307 24.543 48.7584 24.7048C49.3409 28.3796 49.3593 32.1053 48.8139 35.7847C48.8047 35.8124 48.7954 35.8402 48.7908 35.8679C47.7045 40.5319 44.6722 44.5164 40.4612 46.7953C36.7494 48.8106 32.4275 49.3376 28.3736 48.316C29.7419 47.4147 31.0546 46.4255 32.3073 45.3485C35.6123 42.5057 38.3904 39.1452 40.5629 35.3687C40.7802 34.9943 40.6507 34.5135 40.2717 34.2963C39.8973 34.079 39.4166 34.2085 39.1993 34.5875C36.0283 40.065 31.4938 44.6412 26.104 47.8677C26.0809 47.8769 26.0624 47.8908 26.0393 47.9046C24.3106 48.9354 22.4986 49.8229 20.6126 50.5625C20.2105 50.7197 20.0071 51.1773 20.1689 51.5794C20.2891 51.8891 20.5849 52.0787 20.8992 52.0787C20.9963 52.0787 21.0934 52.0602 21.1858 52.0232C23.0533 51.2929 24.8467 50.4239 26.5663 49.4208C28.48 50.0679 30.4676 50.3915 32.4506 50.3915C35.4737 50.3915 38.4828 49.6473 41.1916 48.1727C45.7493 45.7044 49.0496 41.4055 50.2653 36.3717C50.2931 36.307 50.3162 36.2377 50.3254 36.1637C50.9217 32.2809 50.9079 28.3426 50.2931 24.4598ZM27.6202 34.0559C27.6109 33.2147 27.574 32.4335 27.5093 31.6846C27.366 30.0853 27.0932 28.4027 26.6772 26.5307C26.5848 26.1054 26.1641 25.8419 25.7389 25.9344C25.3136 26.0268 25.0501 26.4475 25.1426 26.8727C25.5447 28.6755 25.8082 30.2933 25.9423 31.8233C26.0717 33.2886 26.0856 34.9018 25.9792 36.8848C25.48 37.8925 25.0455 38.9326 24.685 40.005C19.9516 34.3564 20.1134 26.0684 25.2628 20.5862C25.3645 20.4753 25.5401 20.4614 25.6834 20.5446C29.0531 22.5508 31.0361 26.184 30.9113 30.0853C29.6725 31.301 28.5724 32.6322 27.6202 34.0559Z"></path>
<circle stroke="#C20020" r="34.5" cy="35.5" cx="35"></circle>
</svg>
