<svg xmlns="http://www.w3.org/2000/svg" fill="none" viewBox="0 0 70 71" height="71" width="70">
<path fill="#0E0311" d="M45.437 34.8121L48.0039 32.3085C48.7534 31.5734 49.0171 30.4981 48.6907 29.5022C48.366 28.5109 47.5232 27.8028 46.4916 27.6555L39.8687 26.6895C39.3592 26.6181 38.9166 26.2958 38.684 25.8278L35.7251 19.8329C35.2617 18.8945 34.324 18.3114 33.278 18.3114C32.232 18.3114 31.2937 18.8945 30.8309 19.8329L27.8726 25.8266C27.64 26.2958 27.1973 26.6181 26.6838 26.6901L20.0661 27.6555C19.0333 27.8034 18.19 28.5109 17.8653 29.5022C17.5389 30.4981 17.802 31.5728 18.5527 32.3085L23.3456 36.9777C23.7163 37.3369 23.8856 37.8584 23.7986 38.3719L22.668 44.9598C22.4896 45.9902 22.9041 47.0126 23.7486 47.6279C24.2275 47.9768 24.7882 48.1547 25.3529 48.1547C25.7852 48.1547 26.2199 48.0505 26.6217 47.8398L32.5458 44.7255C33.0051 44.4831 33.5526 44.4831 34.0125 44.726L34.1772 44.8124C34.7787 49.3221 38.5873 52.6868 43.177 52.6868C48.1893 52.6868 52.2672 48.6112 52.2672 43.6018C52.2672 41.2675 51.3876 39.0581 49.7942 37.3847C48.6129 36.12 47.0903 35.2334 45.437 34.8121ZM34.9365 39.7788C34.8668 39.9279 34.7937 40.0759 34.7327 40.2284C34.6872 40.3418 34.6527 40.4593 34.6118 40.5744C34.5588 40.7252 34.5013 40.8737 34.4564 41.0274C34.4207 41.1483 34.3959 41.2721 34.3654 41.3941C34.3274 41.5461 34.2854 41.6975 34.2555 41.8518C34.2313 41.9767 34.2175 42.1045 34.1985 42.2311C34.1749 42.3866 34.1472 42.5408 34.1323 42.698C34.1196 42.8258 34.1179 42.9553 34.111 43.0843C34.1029 43.2276 34.0885 43.3704 34.0868 43.5149C33.4023 43.3013 32.654 43.3652 32.0087 43.7066L26.0863 46.8197C25.5435 47.1052 24.9229 47.0586 24.4261 46.6971C23.931 46.3367 23.6973 45.7605 23.8021 45.1549L24.9333 38.5648C25.0835 37.676 24.7893 36.7733 24.1475 36.1516L19.3574 31.4853C18.9165 31.0536 18.768 30.4463 18.9597 29.8608C19.1502 29.28 19.6245 28.8816 20.2307 28.7947L26.8467 27.8293C27.7338 27.7056 28.5023 27.1477 28.9047 26.3366L31.863 20.3417C32.1353 19.7908 32.6643 19.4621 33.278 19.4621C33.8916 19.4621 34.4213 19.7908 34.693 20.3417L37.6524 26.3378C38.0548 27.1477 38.8239 27.7056 39.7064 27.8288L46.3276 28.7941C46.9326 28.8811 47.4069 29.2794 47.5975 29.8603C47.7892 30.4457 47.6401 31.0524 47.1997 31.4848L44.048 34.5588C43.9881 34.5524 43.9248 34.5496 43.8632 34.545C43.8154 34.5409 43.7676 34.5369 43.7187 34.534C43.5443 34.5237 43.3664 34.5162 43.1776 34.5162C40.6412 34.5162 38.2897 35.5345 36.5581 37.3806C36.3601 37.5896 36.1736 37.8066 35.998 38.0306C35.9398 38.1048 35.8903 38.1843 35.8345 38.2603C35.7222 38.4134 35.6077 38.5653 35.5058 38.7248C35.4459 38.8181 35.3958 38.9171 35.3394 39.0126C35.2525 39.1606 35.1615 39.3068 35.0833 39.4593C35.0297 39.5635 34.986 39.6723 34.9365 39.7788ZM43.1764 51.5361C39.0737 51.5361 35.6768 48.4609 35.2761 44.3847C35.2502 44.1089 35.2375 43.8528 35.2375 43.6024C35.2375 41.5668 36.0032 39.639 37.3951 38.1716C38.9091 36.5575 40.9619 35.6681 43.1764 35.6681C43.5397 35.6681 43.8632 35.6899 44.1798 35.7366C46.0006 35.9611 47.6953 36.8257 48.9555 38.1745C50.348 39.6372 51.1148 41.5645 51.1148 43.6018C51.1148 47.9768 47.5532 51.5355 43.1759 51.5355L43.1764 51.5361Z"></path>
<path fill="#0E0311" d="M46.7587 41.0427L42.1736 45.6278L39.3275 42.7818C39.1024 42.5567 38.7386 42.5567 38.5135 42.7818C38.2885 43.0069 38.2885 43.3707 38.5135 43.5958L41.7666 46.8488C41.8788 46.9611 42.0262 47.0175 42.1736 47.0175C42.3209 47.0175 42.4683 46.9611 42.5806 46.8488L47.5727 41.8567C47.7977 41.6316 47.7977 41.2678 47.5727 41.0427C47.3476 40.8176 46.9838 40.8176 46.7587 41.0427Z"></path>
<circle stroke="#C20020" r="34.5" cy="35.5" cx="35"></circle>
</svg>
