<svg xmlns="http://www.w3.org/2000/svg" fill="none" viewBox="0 0 70 71" height="71" width="70">
<g clip-path="url(#clip0_2406_198)">
<path fill="#0E0311" d="M41.8117 41.8691H48.4752C48.8596 41.8691 49.1704 41.5577 49.1704 41.174C49.1704 40.7903 48.8596 40.4789 48.4752 40.4789H40.1336C40.0432 40.4789 39.9529 40.4977 39.8681 40.5324C39.6985 40.6026 39.5629 40.7382 39.492 40.9085C39.4565 40.9933 39.4385 41.083 39.4385 41.174V49.5156C39.4385 49.8993 39.7499 50.2108 40.1336 50.2108C40.5173 50.2108 40.8287 49.8993 40.8287 49.5156V42.8521L52.1546 54.1779C52.2901 54.3134 52.4681 54.3816 52.646 54.3816C52.824 54.3816 53.0019 54.3134 53.1375 54.1779C53.4093 53.9061 53.4093 53.4668 53.1375 53.195L41.8117 41.8691Z"></path>
<path fill="#0E0311" d="M28.0293 30.0513H21.3664C20.9827 30.0513 20.6713 30.3627 20.6713 30.7465C20.6713 31.1302 20.9827 31.4416 21.3664 31.4416H29.708C29.7984 31.4416 29.8887 31.4228 29.9735 31.3881C30.1432 31.3179 30.2787 31.1823 30.3496 31.012C30.3851 30.9272 30.4031 30.8368 30.4031 30.7465V22.4048C30.4031 22.0211 30.0917 21.7097 29.708 21.7097C29.3243 21.7097 29.0129 22.0211 29.0129 22.4048V29.0684L17.6877 17.7433C17.4159 17.4715 16.9766 17.4715 16.7048 17.7433C16.433 18.0151 16.433 18.4544 16.7048 18.7262L28.0293 30.0513Z"></path>
<path fill="#0E0311" d="M29.9742 40.5324C29.8894 40.4977 29.7991 40.4789 29.7087 40.4789H21.3671C20.9834 40.4789 20.672 40.7903 20.672 41.174C20.672 41.5577 20.9834 41.8691 21.3671 41.8691H28.0306L16.7048 53.195C16.433 53.4668 16.433 53.9061 16.7048 54.1779C16.8404 54.3134 17.0183 54.3816 17.1963 54.3816C17.3742 54.3816 17.5522 54.3134 17.6877 54.1779L29.0136 42.8521V49.5156C29.0136 49.8993 29.325 50.2108 29.7087 50.2108C30.0924 50.2108 30.4038 49.8993 30.4038 49.5156V41.174C30.4038 41.0836 30.3851 40.9933 30.3503 40.9085C30.2794 40.7382 30.1445 40.6033 29.9742 40.5324Z"></path>
<path fill="#0E0311" d="M39.8681 31.3888C39.9529 31.4235 40.0432 31.4423 40.1336 31.4423H48.4752C48.8596 31.4423 49.1704 31.1309 49.1704 30.7471C49.1704 30.3634 48.8596 30.052 48.4752 30.052H41.8117L53.1375 18.7262C53.4093 18.4544 53.4093 18.0151 53.1375 17.7433C52.8657 17.4715 52.4264 17.4715 52.1546 17.7433L40.8287 29.0691V22.4055C40.8287 22.0218 40.5173 21.7104 40.1336 21.7104C39.7499 21.7104 39.4385 22.0218 39.4385 22.4055V30.7471C39.4385 30.8375 39.4572 30.9279 39.492 31.0127C39.5629 31.183 39.6978 31.3179 39.8681 31.3888Z"></path>
<path fill="#0E0311" d="M34.9254 30.7484C32.0503 30.7484 29.7119 33.0868 29.7119 35.9619C29.7119 38.837 32.0503 41.1754 34.9254 41.1754C37.8005 41.1754 40.1389 38.837 40.1389 35.9619C40.1389 33.0868 37.8005 30.7484 34.9254 30.7484ZM34.9254 39.7852C32.8171 39.7852 31.1022 38.0703 31.1022 35.9619C31.1022 33.8536 32.8171 32.1387 34.9254 32.1387C37.0338 32.1387 38.7487 33.8536 38.7487 35.9619C38.7487 38.0703 37.0338 39.7852 34.9254 39.7852Z"></path>
</g>
<circle stroke="#C20020" r="34.5" cy="35.5" cx="35"></circle>
<defs>
<clipPath id="clip0_2406_198">
<rect transform="translate(16.501 17.5394)" fill="white" height="36.8421" width="36.8421"></rect>
</clipPath>
</defs>
</svg>
